<mxfile host="app.diagrams.net" modified="2022-12-01T12:45:36.696Z" agent="5.0 (Windows NT 10.0; Win64; x64) AppleWebKit/537.36 (KHTML, like Gecko) Chrome/107.0.0.0 Safari/537.36" etag="3l2KzDuphrcnG6fq3_7S" version="20.6.0" type="github">
  <diagram id="C5RBs43oDa-KdzZeNtuy" name="Page-1">
    <mxGraphModel dx="829" dy="653" grid="1" gridSize="10" guides="1" tooltips="1" connect="1" arrows="1" fold="1" page="1" pageScale="1" pageWidth="827" pageHeight="1169" math="0" shadow="0">
      <root>
        <mxCell id="WIyWlLk6GJQsqaUBKTNV-0" />
        <mxCell id="WIyWlLk6GJQsqaUBKTNV-1" parent="WIyWlLk6GJQsqaUBKTNV-0" />
        <mxCell id="hfSJZbvPrYXMbz0-JqcR-3" style="edgeStyle=orthogonalEdgeStyle;rounded=0;orthogonalLoop=1;jettySize=auto;html=1;exitX=0.5;exitY=1;exitDx=0;exitDy=0;" edge="1" parent="WIyWlLk6GJQsqaUBKTNV-1" source="hfSJZbvPrYXMbz0-JqcR-0" target="hfSJZbvPrYXMbz0-JqcR-1">
          <mxGeometry relative="1" as="geometry" />
        </mxCell>
        <mxCell id="hfSJZbvPrYXMbz0-JqcR-0" value="SRM发送数据" style="rounded=0;whiteSpace=wrap;html=1;" vertex="1" parent="WIyWlLk6GJQsqaUBKTNV-1">
          <mxGeometry x="340" y="50" width="120" height="40" as="geometry" />
        </mxCell>
        <mxCell id="hfSJZbvPrYXMbz0-JqcR-4" style="edgeStyle=orthogonalEdgeStyle;rounded=0;orthogonalLoop=1;jettySize=auto;html=1;exitX=0.5;exitY=1;exitDx=0;exitDy=0;entryX=0.5;entryY=0;entryDx=0;entryDy=0;" edge="1" parent="WIyWlLk6GJQsqaUBKTNV-1" source="hfSJZbvPrYXMbz0-JqcR-1" target="hfSJZbvPrYXMbz0-JqcR-2">
          <mxGeometry relative="1" as="geometry" />
        </mxCell>
        <mxCell id="hfSJZbvPrYXMbz0-JqcR-1" value="保存到中间表" style="rounded=0;whiteSpace=wrap;html=1;" vertex="1" parent="WIyWlLk6GJQsqaUBKTNV-1">
          <mxGeometry x="340" y="130" width="120" height="40" as="geometry" />
        </mxCell>
        <mxCell id="hfSJZbvPrYXMbz0-JqcR-7" style="edgeStyle=orthogonalEdgeStyle;rounded=0;orthogonalLoop=1;jettySize=auto;html=1;exitX=0.5;exitY=1;exitDx=0;exitDy=0;" edge="1" parent="WIyWlLk6GJQsqaUBKTNV-1" source="hfSJZbvPrYXMbz0-JqcR-2" target="hfSJZbvPrYXMbz0-JqcR-5">
          <mxGeometry relative="1" as="geometry" />
        </mxCell>
        <mxCell id="hfSJZbvPrYXMbz0-JqcR-2" value="获取到中间表的数据" style="rounded=0;whiteSpace=wrap;html=1;" vertex="1" parent="WIyWlLk6GJQsqaUBKTNV-1">
          <mxGeometry x="340" y="210" width="120" height="40" as="geometry" />
        </mxCell>
        <mxCell id="hfSJZbvPrYXMbz0-JqcR-8" style="edgeStyle=orthogonalEdgeStyle;rounded=0;orthogonalLoop=1;jettySize=auto;html=1;exitX=0.5;exitY=1;exitDx=0;exitDy=0;entryX=0.5;entryY=0;entryDx=0;entryDy=0;" edge="1" parent="WIyWlLk6GJQsqaUBKTNV-1" source="hfSJZbvPrYXMbz0-JqcR-5" target="hfSJZbvPrYXMbz0-JqcR-6">
          <mxGeometry relative="1" as="geometry" />
        </mxCell>
        <mxCell id="hfSJZbvPrYXMbz0-JqcR-5" value="将数据根据receiptKey分组处理" style="rounded=0;whiteSpace=wrap;html=1;" vertex="1" parent="WIyWlLk6GJQsqaUBKTNV-1">
          <mxGeometry x="340" y="290" width="120" height="40" as="geometry" />
        </mxCell>
        <mxCell id="hfSJZbvPrYXMbz0-JqcR-10" style="edgeStyle=orthogonalEdgeStyle;rounded=0;orthogonalLoop=1;jettySize=auto;html=1;exitX=0.5;exitY=1;exitDx=0;exitDy=0;entryX=0.5;entryY=0;entryDx=0;entryDy=0;" edge="1" parent="WIyWlLk6GJQsqaUBKTNV-1" source="hfSJZbvPrYXMbz0-JqcR-6" target="hfSJZbvPrYXMbz0-JqcR-9">
          <mxGeometry relative="1" as="geometry" />
        </mxCell>
        <mxCell id="hfSJZbvPrYXMbz0-JqcR-6" value="根据工厂(货主)和库存地(lotAble02)获取目标仓库" style="rounded=0;whiteSpace=wrap;html=1;" vertex="1" parent="WIyWlLk6GJQsqaUBKTNV-1">
          <mxGeometry x="325" y="370" width="150" height="50" as="geometry" />
        </mxCell>
        <mxCell id="hfSJZbvPrYXMbz0-JqcR-12" style="edgeStyle=orthogonalEdgeStyle;rounded=0;orthogonalLoop=1;jettySize=auto;html=1;exitX=0.5;exitY=1;exitDx=0;exitDy=0;entryX=0.5;entryY=0;entryDx=0;entryDy=0;" edge="1" parent="WIyWlLk6GJQsqaUBKTNV-1" source="hfSJZbvPrYXMbz0-JqcR-9" target="hfSJZbvPrYXMbz0-JqcR-11">
          <mxGeometry relative="1" as="geometry" />
        </mxCell>
        <mxCell id="hfSJZbvPrYXMbz0-JqcR-9" value="构造收货单单头信息" style="rounded=0;whiteSpace=wrap;html=1;" vertex="1" parent="WIyWlLk6GJQsqaUBKTNV-1">
          <mxGeometry x="340" y="450" width="120" height="40" as="geometry" />
        </mxCell>
        <mxCell id="hfSJZbvPrYXMbz0-JqcR-14" style="edgeStyle=orthogonalEdgeStyle;rounded=0;orthogonalLoop=1;jettySize=auto;html=1;exitX=0.5;exitY=1;exitDx=0;exitDy=0;" edge="1" parent="WIyWlLk6GJQsqaUBKTNV-1" source="hfSJZbvPrYXMbz0-JqcR-11" target="hfSJZbvPrYXMbz0-JqcR-13">
          <mxGeometry relative="1" as="geometry" />
        </mxCell>
        <mxCell id="hfSJZbvPrYXMbz0-JqcR-11" value="构造收货单明细信息" style="rounded=0;whiteSpace=wrap;html=1;" vertex="1" parent="WIyWlLk6GJQsqaUBKTNV-1">
          <mxGeometry x="340" y="520" width="120" height="40" as="geometry" />
        </mxCell>
        <mxCell id="hfSJZbvPrYXMbz0-JqcR-13" value="构造收货单明细信息" style="rounded=0;whiteSpace=wrap;html=1;" vertex="1" parent="WIyWlLk6GJQsqaUBKTNV-1">
          <mxGeometry x="340" y="590" width="120" height="40" as="geometry" />
        </mxCell>
      </root>
    </mxGraphModel>
  </diagram>
</mxfile>
